<mxfile host="app.diagrams.net" modified="2023-09-15T11:09:41.204Z" agent="Mozilla/5.0 (Windows NT 10.0; Win64; x64) AppleWebKit/537.36 (KHTML, like Gecko) Chrome/117.0.0.0 Safari/537.36" etag="v10Rfmfln8p8EuUnqeX5" version="21.7.2" type="device">
  <diagram name="Страница — 1" id="fczIeShgcwE_XA0xXVPk">
    <mxGraphModel dx="2093" dy="988" grid="1" gridSize="10" guides="1" tooltips="1" connect="1" arrows="1" fold="1" page="1" pageScale="1" pageWidth="827" pageHeight="1169" math="0" shadow="0">
      <root>
        <mxCell id="0" />
        <mxCell id="1" parent="0" />
        <mxCell id="LJl65d6WX6j22oBAuKgh-97" value="" style="group" vertex="1" connectable="0" parent="1">
          <mxGeometry x="331" width="849" height="861" as="geometry" />
        </mxCell>
        <mxCell id="LJl65d6WX6j22oBAuKgh-6" value="" style="group" vertex="1" connectable="0" parent="LJl65d6WX6j22oBAuKgh-97">
          <mxGeometry y="201" width="697" height="660" as="geometry" />
        </mxCell>
        <mxCell id="0Lq3dCCnlakvQZ42qWG0-495" value="&lt;font style=&quot;vertical-align: inherit;&quot;&gt;&lt;font style=&quot;vertical-align: inherit;&quot;&gt;&lt;font style=&quot;vertical-align: inherit;&quot;&gt;&lt;font style=&quot;vertical-align: inherit;&quot;&gt;&lt;font style=&quot;vertical-align: inherit;&quot;&gt;&lt;font style=&quot;vertical-align: inherit;&quot;&gt;&lt;font style=&quot;vertical-align: inherit;&quot;&gt;&lt;font style=&quot;vertical-align: inherit;&quot;&gt;&lt;font style=&quot;vertical-align: inherit;&quot;&gt;&lt;font style=&quot;vertical-align: inherit;&quot;&gt;&lt;font style=&quot;vertical-align: inherit;&quot;&gt;&lt;font style=&quot;vertical-align: inherit;&quot;&gt;просмотр графики &lt;/font&gt;&lt;/font&gt;&lt;/font&gt;&lt;/font&gt;&lt;/font&gt;&lt;/font&gt;&lt;/font&gt;&lt;/font&gt;&lt;/font&gt;&lt;/font&gt;&lt;br&gt;&lt;font style=&quot;vertical-align: inherit;&quot;&gt;&lt;font style=&quot;vertical-align: inherit;&quot;&gt;&lt;font style=&quot;vertical-align: inherit;&quot;&gt;&lt;font style=&quot;vertical-align: inherit;&quot;&gt;&lt;font style=&quot;vertical-align: inherit;&quot;&gt;&lt;font style=&quot;vertical-align: inherit;&quot;&gt;&lt;font style=&quot;vertical-align: inherit;&quot;&gt;&lt;font style=&quot;vertical-align: inherit;&quot;&gt;&lt;font style=&quot;vertical-align: inherit;&quot;&gt;&lt;font style=&quot;vertical-align: inherit;&quot;&gt;работы сотрудников&lt;/font&gt;&lt;/font&gt;&lt;/font&gt;&lt;/font&gt;&lt;/font&gt;&lt;/font&gt;&lt;/font&gt;&lt;/font&gt;&lt;/font&gt;&lt;/font&gt;&lt;br&gt;&lt;/font&gt;&lt;/font&gt;" style="strokeWidth=2;html=1;shape=mxgraph.flowchart.start_1;whiteSpace=wrap;" parent="LJl65d6WX6j22oBAuKgh-6" vertex="1">
          <mxGeometry x="180" y="110" width="120" height="60" as="geometry" />
        </mxCell>
        <mxCell id="0Lq3dCCnlakvQZ42qWG0-497" value="" style="endArrow=none;html=1;rounded=0;entryX=0.08;entryY=0.814;entryDx=0;entryDy=0;entryPerimeter=0;" parent="LJl65d6WX6j22oBAuKgh-6" edge="1" target="0Lq3dCCnlakvQZ42qWG0-495">
          <mxGeometry width="50" height="50" relative="1" as="geometry">
            <mxPoint x="150" y="200" as="sourcePoint" />
            <mxPoint x="200" y="150" as="targetPoint" />
          </mxGeometry>
        </mxCell>
        <mxCell id="0Lq3dCCnlakvQZ42qWG0-504" value="&lt;font style=&quot;vertical-align: inherit;&quot;&gt;&lt;font style=&quot;vertical-align: inherit;&quot;&gt;&lt;font style=&quot;vertical-align: inherit;&quot;&gt;&lt;font style=&quot;vertical-align: inherit;&quot;&gt;&lt;font style=&quot;vertical-align: inherit;&quot;&gt;&lt;font style=&quot;vertical-align: inherit;&quot;&gt;&lt;font style=&quot;vertical-align: inherit;&quot;&gt;&lt;font style=&quot;vertical-align: inherit;&quot;&gt;&lt;font style=&quot;vertical-align: inherit;&quot;&gt;&lt;font style=&quot;vertical-align: inherit;&quot;&gt;Составить графики работы&lt;br&gt;&lt;br&gt;&lt;/font&gt;&lt;/font&gt;&lt;/font&gt;&lt;/font&gt;&lt;/font&gt;&lt;/font&gt;&lt;/font&gt;&lt;/font&gt;&lt;/font&gt;&lt;/font&gt;" style="strokeWidth=2;html=1;shape=mxgraph.flowchart.start_1;whiteSpace=wrap;" parent="LJl65d6WX6j22oBAuKgh-6" vertex="1">
          <mxGeometry x="340" width="100" height="60" as="geometry" />
        </mxCell>
        <mxCell id="0Lq3dCCnlakvQZ42qWG0-506" value="&lt;font style=&quot;vertical-align: inherit;&quot;&gt;&lt;font style=&quot;vertical-align: inherit;&quot;&gt;планирование отпуска&lt;/font&gt;&lt;/font&gt;" style="strokeWidth=2;html=1;shape=mxgraph.flowchart.start_1;whiteSpace=wrap;" parent="LJl65d6WX6j22oBAuKgh-6" vertex="1">
          <mxGeometry x="457" y="140" width="100" height="60" as="geometry" />
        </mxCell>
        <mxCell id="0Lq3dCCnlakvQZ42qWG0-318" value="&lt;font style=&quot;vertical-align: inherit;&quot;&gt;&lt;font style=&quot;vertical-align: inherit;&quot;&gt;&lt;font style=&quot;vertical-align: inherit;&quot;&gt;&lt;font style=&quot;vertical-align: inherit;&quot;&gt;&lt;font style=&quot;vertical-align: inherit;&quot;&gt;&lt;font style=&quot;vertical-align: inherit;&quot;&gt;Передать необходимую информацию&lt;/font&gt;&lt;/font&gt;&lt;/font&gt;&lt;/font&gt;&lt;/font&gt;&lt;/font&gt;" style="ellipse;whiteSpace=wrap;html=1;" parent="LJl65d6WX6j22oBAuKgh-6" vertex="1">
          <mxGeometry x="340" y="250" width="150" height="50" as="geometry" />
        </mxCell>
        <mxCell id="0Lq3dCCnlakvQZ42qWG0-481" value="" style="endArrow=none;html=1;rounded=0;exitX=0.9;exitY=0.783;exitDx=0;exitDy=0;exitPerimeter=0;" parent="LJl65d6WX6j22oBAuKgh-6" source="0Lq3dCCnlakvQZ42qWG0-318" target="0Lq3dCCnlakvQZ42qWG0-307" edge="1">
          <mxGeometry width="50" height="50" relative="1" as="geometry">
            <mxPoint x="550" y="320" as="sourcePoint" />
            <mxPoint x="600" y="270" as="targetPoint" />
          </mxGeometry>
        </mxCell>
        <mxCell id="0Lq3dCCnlakvQZ42qWG0-488" value="" style="group" parent="LJl65d6WX6j22oBAuKgh-6" vertex="1" connectable="0">
          <mxGeometry y="180" width="150" height="190" as="geometry" />
        </mxCell>
        <mxCell id="0Lq3dCCnlakvQZ42qWG0-324" value="&lt;font style=&quot;vertical-align: inherit;&quot;&gt;&lt;font style=&quot;vertical-align: inherit;&quot;&gt;&lt;font style=&quot;vertical-align: inherit;&quot;&gt;&lt;font style=&quot;vertical-align: inherit;&quot;&gt;&lt;font style=&quot;vertical-align: inherit;&quot;&gt;&lt;font style=&quot;vertical-align: inherit;&quot;&gt;&lt;font style=&quot;vertical-align: inherit;&quot;&gt;&lt;font style=&quot;vertical-align: inherit;&quot;&gt;&lt;font style=&quot;vertical-align: inherit;&quot;&gt;&lt;font style=&quot;vertical-align: inherit;&quot;&gt;Помощник директора библиотеки&amp;nbsp;&lt;/font&gt;&lt;/font&gt;&lt;/font&gt;&lt;/font&gt;&lt;/font&gt;&lt;/font&gt;&lt;/font&gt;&lt;/font&gt;&lt;/font&gt;&lt;/font&gt;" style="shape=umlActor;verticalLabelPosition=bottom;verticalAlign=top;html=1;" parent="0Lq3dCCnlakvQZ42qWG0-488" vertex="1">
          <mxGeometry x="120" width="30" height="60" as="geometry" />
        </mxCell>
        <mxCell id="0Lq3dCCnlakvQZ42qWG0-336" value="&lt;font style=&quot;vertical-align: inherit;&quot;&gt;&lt;font style=&quot;vertical-align: inherit;&quot;&gt;&lt;font style=&quot;vertical-align: inherit;&quot;&gt;&lt;font style=&quot;vertical-align: inherit;&quot;&gt;Составить объявление&lt;/font&gt;&lt;/font&gt;&lt;/font&gt;&lt;/font&gt;" style="strokeWidth=2;html=1;shape=mxgraph.flowchart.start_1;whiteSpace=wrap;" parent="0Lq3dCCnlakvQZ42qWG0-488" vertex="1">
          <mxGeometry x="-40" y="130" width="140" height="30" as="geometry" />
        </mxCell>
        <mxCell id="0Lq3dCCnlakvQZ42qWG0-343" value="" style="endArrow=none;html=1;rounded=0;" parent="0Lq3dCCnlakvQZ42qWG0-488" edge="1">
          <mxGeometry width="50" height="50" relative="1" as="geometry">
            <mxPoint x="80" y="130" as="sourcePoint" />
            <mxPoint x="130" y="80" as="targetPoint" />
            <Array as="points" />
          </mxGeometry>
        </mxCell>
        <mxCell id="0Lq3dCCnlakvQZ42qWG0-489" value="" style="endArrow=none;html=1;rounded=0;entryX=0.045;entryY=0.302;entryDx=0;entryDy=0;entryPerimeter=0;" parent="LJl65d6WX6j22oBAuKgh-6" edge="1" target="0Lq3dCCnlakvQZ42qWG0-318">
          <mxGeometry width="50" height="50" relative="1" as="geometry">
            <mxPoint x="150" y="200" as="sourcePoint" />
            <mxPoint x="330" y="270" as="targetPoint" />
          </mxGeometry>
        </mxCell>
        <mxCell id="0Lq3dCCnlakvQZ42qWG0-267" value="&lt;font style=&quot;vertical-align: inherit;&quot;&gt;&lt;font style=&quot;vertical-align: inherit;&quot;&gt;&lt;font style=&quot;vertical-align: inherit;&quot;&gt;&lt;font style=&quot;vertical-align: inherit;&quot;&gt;Библиотекарь&lt;/font&gt;&lt;/font&gt;&lt;/font&gt;&lt;/font&gt;" style="shape=umlActor;verticalLabelPosition=bottom;verticalAlign=top;html=1;" parent="LJl65d6WX6j22oBAuKgh-6" vertex="1">
          <mxGeometry x="91.03" y="390" width="28.965517241379313" height="60" as="geometry" />
        </mxCell>
        <mxCell id="0Lq3dCCnlakvQZ42qWG0-300" value="&lt;font style=&quot;vertical-align: inherit;&quot;&gt;&lt;font style=&quot;vertical-align: inherit;&quot;&gt;&lt;font style=&quot;vertical-align: inherit;&quot;&gt;&lt;font style=&quot;vertical-align: inherit;&quot;&gt;&lt;font style=&quot;vertical-align: inherit;&quot;&gt;&lt;font style=&quot;vertical-align: inherit;&quot;&gt;Заполнить читательские абонементы&lt;/font&gt;&lt;/font&gt;&lt;/font&gt;&lt;/font&gt;&lt;/font&gt;&lt;/font&gt;" style="strokeWidth=2;html=1;shape=mxgraph.flowchart.start_1;whiteSpace=wrap;" parent="LJl65d6WX6j22oBAuKgh-6" vertex="1">
          <mxGeometry x="190.00206896551725" y="450" width="154.48275862068965" height="50" as="geometry" />
        </mxCell>
        <mxCell id="0Lq3dCCnlakvQZ42qWG0-305" value="&lt;font style=&quot;vertical-align: inherit;&quot;&gt;&lt;font style=&quot;vertical-align: inherit;&quot;&gt;Регулировать выдачу и возвращение книг читателям&lt;/font&gt;&lt;/font&gt;" style="ellipse;whiteSpace=wrap;html=1;container=0;" parent="LJl65d6WX6j22oBAuKgh-6" vertex="1">
          <mxGeometry x="212.76" y="360" width="107.24" height="80" as="geometry" />
        </mxCell>
        <mxCell id="0Lq3dCCnlakvQZ42qWG0-316" value="" style="group" parent="LJl65d6WX6j22oBAuKgh-6" vertex="1" connectable="0">
          <mxGeometry x="440" y="410" width="230" height="139" as="geometry" />
        </mxCell>
        <mxCell id="0Lq3dCCnlakvQZ42qWG0-312" value="" style="group" parent="0Lq3dCCnlakvQZ42qWG0-316" vertex="1" connectable="0">
          <mxGeometry width="230" height="72" as="geometry" />
        </mxCell>
        <mxCell id="0Lq3dCCnlakvQZ42qWG0-313" value="" style="group" parent="0Lq3dCCnlakvQZ42qWG0-312" vertex="1" connectable="0">
          <mxGeometry x="133.1578947368421" width="96.8421052631579" height="72" as="geometry" />
        </mxCell>
        <mxCell id="0Lq3dCCnlakvQZ42qWG0-309" value="" style="group" parent="0Lq3dCCnlakvQZ42qWG0-313" vertex="1" connectable="0">
          <mxGeometry x="60.526315789473685" width="36.31578947368421" height="72" as="geometry" />
        </mxCell>
        <mxCell id="0Lq3dCCnlakvQZ42qWG0-307" value="&lt;font style=&quot;vertical-align: inherit;&quot;&gt;&lt;font style=&quot;vertical-align: inherit;&quot;&gt;&lt;font style=&quot;vertical-align: inherit;&quot;&gt;&lt;font style=&quot;vertical-align: inherit;&quot;&gt;Посетитель&lt;/font&gt;&lt;/font&gt;&lt;/font&gt;&lt;/font&gt;" style="shape=umlActor;verticalLabelPosition=bottom;verticalAlign=top;html=1;" parent="0Lq3dCCnlakvQZ42qWG0-309" vertex="1">
          <mxGeometry width="36.31578947368421" height="72" as="geometry" />
        </mxCell>
        <mxCell id="0Lq3dCCnlakvQZ42qWG0-513" value="" style="endArrow=none;html=1;rounded=0;" parent="0Lq3dCCnlakvQZ42qWG0-313" edge="1">
          <mxGeometry relative="1" as="geometry">
            <mxPoint x="6.842105263157919" y="36" as="sourcePoint" />
            <mxPoint x="76.84210526315792" y="35.58000000000004" as="targetPoint" />
            <Array as="points">
              <mxPoint x="36.84210526315792" y="35.58000000000004" />
            </Array>
          </mxGeometry>
        </mxCell>
        <mxCell id="0Lq3dCCnlakvQZ42qWG0-310" value="&lt;font style=&quot;vertical-align: inherit;&quot;&gt;&lt;font style=&quot;vertical-align: inherit;&quot;&gt;Взять книгу на абонемент&lt;/font&gt;&lt;/font&gt;" style="ellipse;whiteSpace=wrap;html=1;" parent="0Lq3dCCnlakvQZ42qWG0-313" vertex="1">
          <mxGeometry x="-134.15789473684208" y="-1" width="150" height="68" as="geometry" />
        </mxCell>
        <mxCell id="0Lq3dCCnlakvQZ42qWG0-461" value="" style="endArrow=none;html=1;rounded=0;entryX=0.176;entryY=0.893;entryDx=0;entryDy=0;entryPerimeter=0;exitX=0.5;exitY=0.5;exitDx=0;exitDy=0;exitPerimeter=0;" parent="LJl65d6WX6j22oBAuKgh-6" target="0Lq3dCCnlakvQZ42qWG0-318" edge="1" source="0Lq3dCCnlakvQZ42qWG0-267">
          <mxGeometry width="50" height="50" relative="1" as="geometry">
            <mxPoint x="120" y="410" as="sourcePoint" />
            <mxPoint x="216" y="320" as="targetPoint" />
          </mxGeometry>
        </mxCell>
        <mxCell id="0Lq3dCCnlakvQZ42qWG0-304" value="" style="group" parent="LJl65d6WX6j22oBAuKgh-6" vertex="1" connectable="0">
          <mxGeometry x="84" y="560" width="210" height="100" as="geometry" />
        </mxCell>
        <mxCell id="0Lq3dCCnlakvQZ42qWG0-297" value="&lt;font style=&quot;vertical-align: inherit;&quot;&gt;&lt;font style=&quot;vertical-align: inherit;&quot;&gt;&lt;font style=&quot;vertical-align: inherit;&quot;&gt;&lt;font style=&quot;vertical-align: inherit;&quot;&gt;&lt;font style=&quot;vertical-align: inherit;&quot;&gt;&lt;font style=&quot;vertical-align: inherit;&quot;&gt;&lt;font style=&quot;vertical-align: inherit;&quot;&gt;&lt;font style=&quot;vertical-align: inherit;&quot;&gt;&lt;font style=&quot;vertical-align: inherit;&quot;&gt;&lt;font style=&quot;vertical-align: inherit;&quot;&gt;Принять участие в научной конференции&lt;/font&gt;&lt;/font&gt;&lt;/font&gt;&lt;/font&gt;&lt;/font&gt;&lt;/font&gt;&lt;/font&gt;&lt;/font&gt;&lt;/font&gt;&lt;/font&gt;" style="strokeWidth=2;html=1;shape=mxgraph.flowchart.start_1;whiteSpace=wrap;" parent="0Lq3dCCnlakvQZ42qWG0-304" vertex="1">
          <mxGeometry x="90" y="20" width="120" height="80" as="geometry" />
        </mxCell>
        <mxCell id="0Lq3dCCnlakvQZ42qWG0-298" value="" style="group" parent="0Lq3dCCnlakvQZ42qWG0-304" vertex="1" connectable="0">
          <mxGeometry width="30" height="90" as="geometry" />
        </mxCell>
        <mxCell id="0Lq3dCCnlakvQZ42qWG0-270" value="&lt;font style=&quot;vertical-align: inherit;&quot;&gt;&lt;font style=&quot;vertical-align: inherit;&quot;&gt;&lt;font style=&quot;vertical-align: inherit;&quot;&gt;&lt;font style=&quot;vertical-align: inherit;&quot;&gt;&lt;font style=&quot;vertical-align: inherit;&quot;&gt;&lt;font style=&quot;vertical-align: inherit;&quot;&gt;&lt;font style=&quot;vertical-align: inherit;&quot;&gt;&lt;font style=&quot;vertical-align: inherit;&quot;&gt;научный сотрудник библиотеки&lt;/font&gt;&lt;/font&gt;&lt;/font&gt;&lt;/font&gt;&lt;/font&gt;&lt;/font&gt;&lt;/font&gt;&lt;/font&gt;" style="shape=umlActor;verticalLabelPosition=bottom;verticalAlign=top;html=1;container=0;" parent="0Lq3dCCnlakvQZ42qWG0-298" vertex="1">
          <mxGeometry y="30" width="30" height="60" as="geometry" />
        </mxCell>
        <mxCell id="0Lq3dCCnlakvQZ42qWG0-299" value="" style="line;strokeWidth=1;rotatable=0;dashed=0;labelPosition=right;align=left;verticalAlign=middle;spacingTop=0;spacingLeft=6;points=[];portConstraint=eastwest;" parent="0Lq3dCCnlakvQZ42qWG0-304" vertex="1">
          <mxGeometry x="20" y="50" width="70" height="10" as="geometry" />
        </mxCell>
        <mxCell id="LJl65d6WX6j22oBAuKgh-1" value="" style="endArrow=none;endFill=0;endSize=12;html=1;rounded=0;entryX=0;entryY=0.5;entryDx=0;entryDy=0;exitX=0.5;exitY=0.5;exitDx=0;exitDy=0;exitPerimeter=0;" edge="1" parent="LJl65d6WX6j22oBAuKgh-6">
          <mxGeometry width="160" relative="1" as="geometry">
            <mxPoint x="105.51275862068951" y="430" as="sourcePoint" />
            <mxPoint x="212.76" y="410" as="targetPoint" />
          </mxGeometry>
        </mxCell>
        <mxCell id="LJl65d6WX6j22oBAuKgh-2" value="" style="endArrow=block;endSize=16;endFill=0;html=1;rounded=0;entryX=0.339;entryY=0.812;entryDx=0;entryDy=0;entryPerimeter=0;" edge="1" parent="LJl65d6WX6j22oBAuKgh-6" source="0Lq3dCCnlakvQZ42qWG0-270" target="0Lq3dCCnlakvQZ42qWG0-267">
          <mxGeometry width="160" relative="1" as="geometry">
            <mxPoint x="80.00000000000006" y="529.9999999999999" as="sourcePoint" />
            <mxPoint x="412.29999999999995" y="326.12" as="targetPoint" />
          </mxGeometry>
        </mxCell>
        <mxCell id="LJl65d6WX6j22oBAuKgh-11" value="&lt;font style=&quot;vertical-align: inherit;&quot;&gt;&lt;font style=&quot;vertical-align: inherit;&quot;&gt;&lt;font style=&quot;vertical-align: inherit;&quot;&gt;&lt;font style=&quot;vertical-align: inherit;&quot;&gt;&lt;font style=&quot;vertical-align: inherit;&quot;&gt;&lt;font style=&quot;vertical-align: inherit;&quot;&gt;&lt;font style=&quot;vertical-align: inherit;&quot;&gt;&lt;font style=&quot;vertical-align: inherit;&quot;&gt;&lt;font style=&quot;vertical-align: inherit;&quot;&gt;&lt;font style=&quot;vertical-align: inherit;&quot;&gt;&lt;font style=&quot;vertical-align: inherit;&quot;&gt;&lt;font style=&quot;vertical-align: inherit;&quot;&gt;Составить планы научной деятельности&lt;/font&gt;&lt;/font&gt;&lt;/font&gt;&lt;/font&gt;&lt;/font&gt;&lt;/font&gt;&lt;/font&gt;&lt;/font&gt;&lt;/font&gt;&lt;/font&gt;&lt;/font&gt;&lt;/font&gt;" style="strokeWidth=2;html=1;shape=mxgraph.flowchart.start_1;whiteSpace=wrap;" vertex="1" parent="LJl65d6WX6j22oBAuKgh-6">
          <mxGeometry x="129" y="510" width="111" height="70" as="geometry" />
        </mxCell>
        <mxCell id="LJl65d6WX6j22oBAuKgh-13" value="" style="endArrow=none;endFill=0;endSize=12;html=1;rounded=0;entryX=0.083;entryY=0.838;entryDx=0;entryDy=0;entryPerimeter=0;exitX=0.561;exitY=0.297;exitDx=0;exitDy=0;exitPerimeter=0;" edge="1" parent="LJl65d6WX6j22oBAuKgh-6" source="0Lq3dCCnlakvQZ42qWG0-270" target="LJl65d6WX6j22oBAuKgh-11">
          <mxGeometry width="160" relative="1" as="geometry">
            <mxPoint x="250" y="490" as="sourcePoint" />
            <mxPoint x="410" y="490" as="targetPoint" />
          </mxGeometry>
        </mxCell>
        <mxCell id="LJl65d6WX6j22oBAuKgh-33" value="" style="endArrow=none;endFill=0;endSize=12;html=1;rounded=0;entryX=0.049;entryY=0.277;entryDx=0;entryDy=0;exitX=0.699;exitY=0.764;exitDx=0;exitDy=0;exitPerimeter=0;entryPerimeter=0;" edge="1" parent="LJl65d6WX6j22oBAuKgh-6" source="0Lq3dCCnlakvQZ42qWG0-267" target="0Lq3dCCnlakvQZ42qWG0-300">
          <mxGeometry width="160" relative="1" as="geometry">
            <mxPoint x="115.51275862068951" y="440" as="sourcePoint" />
            <mxPoint x="222.76" y="420" as="targetPoint" />
          </mxGeometry>
        </mxCell>
        <mxCell id="LJl65d6WX6j22oBAuKgh-70" value="&lt;font style=&quot;vertical-align: inherit;&quot;&gt;&lt;font style=&quot;vertical-align: inherit;&quot;&gt;Составить график работы библиотеки&lt;/font&gt;&lt;/font&gt;" style="ellipse;whiteSpace=wrap;html=1;" vertex="1" parent="LJl65d6WX6j22oBAuKgh-6">
          <mxGeometry x="630" y="20" width="96" height="60" as="geometry" />
        </mxCell>
        <mxCell id="LJl65d6WX6j22oBAuKgh-72" value="&lt;font style=&quot;vertical-align: inherit;&quot;&gt;&lt;font style=&quot;vertical-align: inherit;&quot;&gt;&lt;font style=&quot;vertical-align: inherit;&quot;&gt;&lt;font style=&quot;vertical-align: inherit;&quot;&gt;Составить график работы сотрудников&lt;/font&gt;&lt;/font&gt;&lt;/font&gt;&lt;/font&gt;" style="strokeWidth=2;html=1;shape=mxgraph.flowchart.start_1;whiteSpace=wrap;" vertex="1" parent="LJl65d6WX6j22oBAuKgh-6">
          <mxGeometry x="610" y="110" width="100" height="60" as="geometry" />
        </mxCell>
        <mxCell id="LJl65d6WX6j22oBAuKgh-74" value="&lt;font style=&quot;vertical-align: inherit;&quot;&gt;&lt;font style=&quot;vertical-align: inherit;&quot;&gt;&lt;font style=&quot;vertical-align: inherit;&quot;&gt;&lt;font style=&quot;vertical-align: inherit;&quot;&gt;&lt;font style=&quot;vertical-align: inherit;&quot;&gt;&lt;font style=&quot;vertical-align: inherit;&quot;&gt;icnlude&lt;/font&gt;&lt;/font&gt;&lt;/font&gt;&lt;/font&gt;&lt;/font&gt;&lt;/font&gt;" style="endArrow=open;endSize=12;dashed=1;html=1;rounded=0;exitX=0.933;exitY=0.739;exitDx=0;exitDy=0;exitPerimeter=0;entryX=0;entryY=0.5;entryDx=0;entryDy=0;" edge="1" parent="LJl65d6WX6j22oBAuKgh-6" source="0Lq3dCCnlakvQZ42qWG0-504" target="LJl65d6WX6j22oBAuKgh-70">
          <mxGeometry width="160" relative="1" as="geometry">
            <mxPoint x="330" y="300" as="sourcePoint" />
            <mxPoint x="490" y="300" as="targetPoint" />
          </mxGeometry>
        </mxCell>
        <mxCell id="LJl65d6WX6j22oBAuKgh-75" value="&lt;font style=&quot;vertical-align: inherit;&quot;&gt;&lt;font style=&quot;vertical-align: inherit;&quot;&gt;iclude&lt;/font&gt;&lt;/font&gt;" style="endArrow=open;endSize=12;dashed=1;html=1;rounded=0;exitX=0.855;exitY=0.855;exitDx=0;exitDy=0;exitPerimeter=0;entryX=0.145;entryY=0.145;entryDx=0;entryDy=0;entryPerimeter=0;" edge="1" parent="LJl65d6WX6j22oBAuKgh-6" source="0Lq3dCCnlakvQZ42qWG0-504" target="LJl65d6WX6j22oBAuKgh-72">
          <mxGeometry width="160" relative="1" as="geometry">
            <mxPoint x="443" y="54" as="sourcePoint" />
            <mxPoint x="640" y="60" as="targetPoint" />
          </mxGeometry>
        </mxCell>
        <mxCell id="LJl65d6WX6j22oBAuKgh-83" value="&lt;font style=&quot;vertical-align: inherit;&quot;&gt;&lt;font style=&quot;vertical-align: inherit;&quot;&gt;&lt;font style=&quot;vertical-align: inherit;&quot;&gt;&lt;font style=&quot;vertical-align: inherit;&quot;&gt;&lt;font style=&quot;vertical-align: inherit;&quot;&gt;&lt;font style=&quot;vertical-align: inherit;&quot;&gt;extendse&lt;/font&gt;&lt;/font&gt;&lt;/font&gt;&lt;/font&gt;&lt;/font&gt;&lt;/font&gt;" style="endArrow=open;endSize=12;dashed=1;html=1;rounded=0;exitX=0.145;exitY=0.855;exitDx=0;exitDy=0;exitPerimeter=0;" edge="1" parent="LJl65d6WX6j22oBAuKgh-6" source="0Lq3dCCnlakvQZ42qWG0-506" target="0Lq3dCCnlakvQZ42qWG0-495">
          <mxGeometry width="160" relative="1" as="geometry">
            <mxPoint x="329" y="299" as="sourcePoint" />
            <mxPoint x="489" y="299" as="targetPoint" />
          </mxGeometry>
        </mxCell>
        <mxCell id="LJl65d6WX6j22oBAuKgh-96" value="&lt;font style=&quot;vertical-align: inherit;&quot;&gt;&lt;font style=&quot;vertical-align: inherit;&quot;&gt;&lt;font style=&quot;vertical-align: inherit;&quot;&gt;&lt;font style=&quot;vertical-align: inherit;&quot;&gt;&lt;font style=&quot;vertical-align: inherit;&quot;&gt;&lt;font style=&quot;vertical-align: inherit;&quot;&gt;&lt;font style=&quot;vertical-align: inherit;&quot;&gt;&lt;font style=&quot;vertical-align: inherit;&quot;&gt;&lt;font style=&quot;vertical-align: inherit;&quot;&gt;&lt;font style=&quot;vertical-align: inherit;&quot;&gt;Выбрать книгу&lt;/font&gt;&lt;/font&gt;&lt;/font&gt;&lt;/font&gt;&lt;/font&gt;&lt;/font&gt;&lt;/font&gt;&lt;/font&gt;&lt;/font&gt;&lt;/font&gt;" style="ellipse;whiteSpace=wrap;html=1;" vertex="1" parent="LJl65d6WX6j22oBAuKgh-6">
          <mxGeometry x="449" y="549" width="90" height="50" as="geometry" />
        </mxCell>
        <mxCell id="LJl65d6WX6j22oBAuKgh-107" value="&lt;font style=&quot;vertical-align: inherit;&quot;&gt;&lt;font style=&quot;vertical-align: inherit;&quot;&gt;iclude&lt;/font&gt;&lt;/font&gt;" style="endArrow=open;endSize=12;dashed=1;html=1;rounded=0;entryX=0.5;entryY=0;entryDx=0;entryDy=0;" edge="1" parent="LJl65d6WX6j22oBAuKgh-6" source="0Lq3dCCnlakvQZ42qWG0-310" target="LJl65d6WX6j22oBAuKgh-96">
          <mxGeometry width="160" relative="1" as="geometry">
            <mxPoint x="436" y="61" as="sourcePoint" />
            <mxPoint x="635" y="129" as="targetPoint" />
          </mxGeometry>
        </mxCell>
        <mxCell id="LJl65d6WX6j22oBAuKgh-50" value="" style="group" vertex="1" connectable="0" parent="LJl65d6WX6j22oBAuKgh-97">
          <mxGeometry x="369" width="120" height="180" as="geometry" />
        </mxCell>
        <mxCell id="LJl65d6WX6j22oBAuKgh-7" value="&lt;font style=&quot;vertical-align: inherit;&quot;&gt;&lt;font style=&quot;vertical-align: inherit;&quot;&gt;Главный библиотекарь&lt;/font&gt;&lt;/font&gt;" style="shape=umlActor;verticalLabelPosition=bottom;verticalAlign=top;html=1;" vertex="1" parent="LJl65d6WX6j22oBAuKgh-50">
          <mxGeometry x="30" width="30" height="60" as="geometry" />
        </mxCell>
        <mxCell id="LJl65d6WX6j22oBAuKgh-67" value="&lt;font style=&quot;vertical-align: inherit;&quot;&gt;&lt;font style=&quot;vertical-align: inherit;&quot;&gt;Раздать задания библиотекарям&lt;/font&gt;&lt;/font&gt;" style="ellipse;whiteSpace=wrap;html=1;" vertex="1" parent="LJl65d6WX6j22oBAuKgh-97">
          <mxGeometry x="169" y="170" width="110" height="50" as="geometry" />
        </mxCell>
        <mxCell id="LJl65d6WX6j22oBAuKgh-79" value="" style="endArrow=none;html=1;rounded=0;entryX=0.711;entryY=-0.085;entryDx=0;entryDy=0;entryPerimeter=0;" edge="1" parent="LJl65d6WX6j22oBAuKgh-97" target="LJl65d6WX6j22oBAuKgh-67">
          <mxGeometry width="50" height="50" relative="1" as="geometry">
            <mxPoint x="409" y="60" as="sourcePoint" />
            <mxPoint x="356" y="475" as="targetPoint" />
          </mxGeometry>
        </mxCell>
        <mxCell id="LJl65d6WX6j22oBAuKgh-80" value="" style="endArrow=none;html=1;rounded=0;" edge="1" parent="LJl65d6WX6j22oBAuKgh-97" source="LJl65d6WX6j22oBAuKgh-7" target="0Lq3dCCnlakvQZ42qWG0-504">
          <mxGeometry width="50" height="50" relative="1" as="geometry">
            <mxPoint x="169" y="420" as="sourcePoint" />
            <mxPoint x="366" y="485" as="targetPoint" />
          </mxGeometry>
        </mxCell>
        <mxCell id="LJl65d6WX6j22oBAuKgh-85" value="&lt;font style=&quot;vertical-align: inherit;&quot;&gt;&lt;font style=&quot;vertical-align: inherit;&quot;&gt;&lt;font style=&quot;vertical-align: inherit;&quot;&gt;&lt;font style=&quot;vertical-align: inherit;&quot;&gt;&lt;font style=&quot;vertical-align: inherit;&quot;&gt;&lt;font style=&quot;vertical-align: inherit;&quot;&gt;&lt;font style=&quot;vertical-align: inherit;&quot;&gt;&lt;font style=&quot;vertical-align: inherit;&quot;&gt;&lt;font style=&quot;vertical-align: inherit;&quot;&gt;&lt;font style=&quot;vertical-align: inherit;&quot;&gt;&lt;font style=&quot;vertical-align: inherit;&quot;&gt;&lt;font style=&quot;vertical-align: inherit;&quot;&gt;Сдать книгу&lt;/font&gt;&lt;/font&gt;&lt;/font&gt;&lt;/font&gt;&lt;/font&gt;&lt;/font&gt;&lt;/font&gt;&lt;/font&gt;&lt;/font&gt;&lt;/font&gt;&lt;/font&gt;&lt;/font&gt;" style="ellipse;whiteSpace=wrap;html=1;" vertex="1" parent="LJl65d6WX6j22oBAuKgh-97">
          <mxGeometry x="759" y="550" width="90" height="39" as="geometry" />
        </mxCell>
        <mxCell id="LJl65d6WX6j22oBAuKgh-92" value="" style="endArrow=none;html=1;rounded=0;exitX=0;exitY=1;exitDx=0;exitDy=0;entryX=0.5;entryY=0.5;entryDx=0;entryDy=0;entryPerimeter=0;" edge="1" parent="LJl65d6WX6j22oBAuKgh-97" source="LJl65d6WX6j22oBAuKgh-85" target="0Lq3dCCnlakvQZ42qWG0-307">
          <mxGeometry width="50" height="50" relative="1" as="geometry">
            <mxPoint x="485" y="500" as="sourcePoint" />
            <mxPoint x="644" y="641" as="targetPoint" />
          </mxGeometry>
        </mxCell>
        <mxCell id="LJl65d6WX6j22oBAuKgh-98" value="&lt;font style=&quot;vertical-align: inherit;&quot;&gt;&lt;font style=&quot;vertical-align: inherit;&quot;&gt;&lt;font style=&quot;vertical-align: inherit;&quot;&gt;&lt;font style=&quot;vertical-align: inherit;&quot;&gt;&lt;font style=&quot;vertical-align: inherit;&quot;&gt;&lt;font style=&quot;vertical-align: inherit;&quot;&gt;&lt;font style=&quot;vertical-align: inherit;&quot;&gt;&lt;font style=&quot;vertical-align: inherit;&quot;&gt;&lt;font style=&quot;vertical-align: inherit;&quot;&gt;&lt;font style=&quot;vertical-align: inherit;&quot;&gt;&lt;font style=&quot;vertical-align: inherit;&quot;&gt;&lt;font style=&quot;vertical-align: inherit;&quot;&gt;Выбрать срок&lt;/font&gt;&lt;/font&gt;&lt;/font&gt;&lt;/font&gt;&lt;/font&gt;&lt;/font&gt;&lt;/font&gt;&lt;/font&gt;&lt;/font&gt;&lt;/font&gt;&lt;/font&gt;&lt;/font&gt;" style="ellipse;whiteSpace=wrap;html=1;" vertex="1" parent="LJl65d6WX6j22oBAuKgh-97">
          <mxGeometry x="669" y="750" width="90" height="50" as="geometry" />
        </mxCell>
        <mxCell id="LJl65d6WX6j22oBAuKgh-108" value="&lt;font style=&quot;vertical-align: inherit;&quot;&gt;&lt;font style=&quot;vertical-align: inherit;&quot;&gt;iclude&lt;/font&gt;&lt;/font&gt;" style="endArrow=open;endSize=12;dashed=1;html=1;rounded=0;entryX=0;entryY=0.5;entryDx=0;entryDy=0;" edge="1" parent="1" target="LJl65d6WX6j22oBAuKgh-98">
          <mxGeometry width="160" relative="1" as="geometry">
            <mxPoint x="910" y="670" as="sourcePoint" />
            <mxPoint x="1060" y="750" as="targetPoint" />
            <Array as="points">
              <mxPoint x="960" y="730" />
            </Array>
          </mxGeometry>
        </mxCell>
      </root>
    </mxGraphModel>
  </diagram>
</mxfile>
